<?xml version="1.0" standalone="no"?><!DOCTYPE svg PUBLIC "-//W3C//DTD SVG 1.1//EN" "http://www.w3.org/Graphics/SVG/1.1/DTD/svg11.dtd"><svg t="1727618654422" class="icon" viewBox="0 0 1024 1024" version="1.1" xmlns="http://www.w3.org/2000/svg" p-id="5287" xmlns:xlink="http://www.w3.org/1999/xlink" width="200" height="200"><path d="M514.972 90.125c-170.438 0-314.793 147.326-314.793 321.801 0 182.691 167.319 369.563 279.833 500.894 0.441 0.55 18.636 21.057 41.05 21.057 0.037 0 1.907 0 1.981 0 22.415 0 40.5-20.507 40.903-21.021 105.653-123.225 259.875-326.347 259.875-500.93 0-174.471-112.585-321.801-308.849-321.801zM525.427 877.491c-0.917 0.917-2.238 1.981-3.412 2.789-1.174-0.807-2.495-1.871-3.449-2.789l-13.611-15.884c-106.716-124.178-252.832-294.249-252.832-449.682 0-145.895 120.363-269.083 262.847-269.083 177.445 0 256.903 135.147 256.903 269.083 0 117.978-82.945 274.622-246.448 465.566zM512.917 249.813c-86.099 0-155.91 70.838-155.91 158.222s69.812 158.222 155.91 158.222c86.099 0 155.91-70.838 155.91-158.222s-69.812-158.222-155.91-158.222zM512.917 513.468c-57.338 0-105.138-48.46-105.138-106.606 0-58.182 46.626-105.469 103.929-105.469 57.302 0 103.929 47.287 103.929 105.469 0.037 58.146-45.379 106.606-102.718 106.606z" fill="#272636" p-id="5288"></path></svg>