<?xml version="1.0" standalone="no"?><!DOCTYPE svg PUBLIC "-//W3C//DTD SVG 1.1//EN" "http://www.w3.org/Graphics/SVG/1.1/DTD/svg11.dtd"><svg t="1727618838627" class="icon" viewBox="0 0 1024 1024" version="1.1" xmlns="http://www.w3.org/2000/svg" p-id="10087" xmlns:xlink="http://www.w3.org/1999/xlink" width="200" height="200"><path d="M871.001397 828.594565c0 21.36254-10.45205 40.608883-31.351032 57.740052-20.897959 17.129122-48.77589 30.855752-83.628676 41.188074-34.847669 10.331299-73.088622 18.128893-114.717741 23.388686-41.62605 5.258771-84.712357 7.888667-129.248689 7.888667-44.542472 0-87.624686-2.629897-129.250736-7.888667-41.62605-5.259794-79.868025-13.057387-114.719788-23.388686-34.848693-10.332323-62.7256-24.057929-83.625606-41.188074-20.897959-17.130146-31.350009-36.376489-31.350009-57.740052 0-16.617469 5.607718-31.621185 16.817014-45.008077 11.210319-13.387915 26.675546-24.671912 46.39875-33.841759 19.716041-9.17087 39.770795-16.721847 60.154032-22.645766 20.384259-5.92392 42.645263-10.926864 66.781986-15.012925 8.831132-1.686409 16.98586 0.096191 24.466228 5.353938 7.480368 5.26491 11.897981 12.296047 13.247722 21.11183 1.694595 8.810666-0.095167 16.947997-5.367241 24.410969-5.273097 7.462972-12.325723 11.870352-21.156856 13.218046-19.716041 3.3984-37.736463 7.389294-54.04694 11.961426-16.311501 4.577249-29.310559 8.897647-39.000246 12.961196-9.688663 4.063549-17.931395 8.05342-24.727171 11.966543-6.792707 3.9121-11.468193 7.214309-14.016225 9.91379-2.552126 2.695389-3.999081 4.724605-4.342912 6.094812 1.028423 3.719718 5.615904 8.214079 13.763468 13.473873 8.145517 5.259794 20.557198 10.853186 37.229926 16.777105 16.673751 5.92392 36.051077 11.432377 58.128909 16.521279 22.079878 5.089925 49.356105 9.323343 81.830727 12.704346 32.473599 3.382027 66.711378 5.080715 102.727663 5.098111 36.011168 0.017396 70.254064-1.682315 102.727663-5.098111 32.470529-3.419889 59.746756-7.65433 81.82561-12.704346 22.077831-5.051039 41.456181-10.645454 58.128909-16.778128 16.677844-6.132674 29.085432-11.815093 37.230949-17.033955 8.146541-5.223978 12.734022-9.884115 13.762445-13.987572-0.342808-1.346671-1.790786-3.207042-4.337795-5.581112-2.553149-2.378164-7.224542-5.594415-14.020318-9.658987-6.7968-4.063549-15.034415-8.05342-24.724101-11.964496-9.688663-3.9121-22.687722-8.146541-39.004339-12.70537-16.310477-4.554736-34.32476-8.54563-54.042847-11.961426-8.835226-1.346671-15.884782-5.754051-21.159926-13.218046-5.273097-7.461949-7.062859-15.600303-5.368264-24.410969 1.349741-8.81476 5.767354-15.84692 13.247722-21.11183 7.480368-5.257747 15.636119-7.040347 24.471344-5.353938 24.134677 4.063549 46.393633 9.071609 66.776869 15.012925 20.389376 5.946432 40.437991 13.491269 60.159148 22.645766 19.717064 9.153474 35.183314 20.432355 46.393633 33.841759 11.213389 13.405311 16.820084 28.409027 16.820084 45.008077L871.001397 828.593542zM675.225525 372.82524l0 195.325617c0 8.809643-3.227508 16.447601-9.679453 22.901593-6.452969 6.458085-14.103206 9.67536-22.954805 9.657964l-32.635281 0 0 195.324594c0 8.809643-3.225461 16.443507-9.6815 22.901593-6.451946 6.455015-14.101159 9.676383-22.954805 9.657964L446.816418 828.594565c-8.831132 0-16.485463-3.221368-22.954805-9.657964-6.473435-6.437619-9.697873-14.074553-9.680477-22.901593L414.181137 600.710414l-32.635281 0c-8.831132 0-16.480346-3.220345-22.954805-9.657964-6.470365-6.438643-9.697873-14.069437-9.677407-22.901593L348.913645 372.82524c0-17.96414 6.374174-33.30657 19.130709-46.034453 12.752442-12.721743 28.129664-19.085684 46.13576-19.085684l195.774849 0c18.006096 0 33.384341 6.363941 46.139853 19.085684C668.848281 339.51867 675.225525 354.8611 675.225525 372.82524L675.225525 372.82524zM626.258277 177.470971c0 31.543414-11.134595 58.417481-33.401738 80.615039-22.271236 22.202675-49.202609 33.308617-80.800257 33.329083-31.597649 0.01842-58.531068-11.090593-80.801281-33.329083-22.270213-22.236444-33.406854-49.107441-33.406854-80.615039 0-31.503505 11.137665-58.374502 33.406854-80.610946 22.270213-22.23849 49.203632-33.346479 80.801281-33.329083 31.597649 0.017396 58.529021 11.127432 80.800257 33.329083C615.123682 119.057583 626.258277 145.926534 626.258277 177.470971L626.258277 177.470971zM626.258277 177.470971" p-id="10088" fill="#515151"></path></svg>