<?xml version="1.0" standalone="no"?><!DOCTYPE svg PUBLIC "-//W3C//DTD SVG 1.1//EN" "http://www.w3.org/Graphics/SVG/1.1/DTD/svg11.dtd"><svg t="1727618780055" class="icon" viewBox="0 0 1024 1024" version="1.1" xmlns="http://www.w3.org/2000/svg" p-id="8929" xmlns:xlink="http://www.w3.org/1999/xlink" width="200" height="200"><path d="M580.16 325.418667C548.266667 290.133333 502.677333 269.866667 455.104 269.866667l-94.933333 0c-47.573333 0-93.162667 20.266667-125.077333 55.552L82.176 494.72c-7.637333 8.469333-7.274667 21.418667 0.746667 29.44l52.074667 52.010667c4.202667 4.181333 9.770667 6.634667 15.829333 6.229333 5.909333-0.192 11.477333-2.816 15.36-7.274667l109.738667-125.44 0 552.938667c0 11.818667 9.557333 21.376 21.354667 21.376l73.621333 0c11.776 0 21.354667-9.557333 21.354667-21.376L392.256 680.533333l30.869333 0 0 322.090667c0 11.818667 9.557333 21.376 21.354667 21.376l73.557333 0c11.797333 0 21.333333-9.557333 21.290667-21.376L539.328 449.706667l109.76 125.418667c3.925333 4.458667 9.514667 7.082667 15.424 7.274667 5.717333 0.448 11.626667-2.069333 15.786667-6.229333l52.010667-52.010667c8.085333-8.042667 8.362667-20.970667 0.725333-29.44L580.16 325.418667zM666.24 529.792l-132.181333-151.04c-5.802667-6.698667-15.296-9.045333-23.552-5.930667-8.32 3.136-13.845333 11.114667-13.845333 20.010667l0 588.437333-30.826667 0-0.085333 0L465.749333 659.157333c0-11.818667-9.557333-21.376-21.354667-21.376l-73.578667 0c-11.776 0-21.354667 9.557333-21.354667 21.376l0 322.112-30.869333 0L318.592 392.810667c0-8.896-5.504-16.896-13.824-20.010667-8.32-3.093333-17.728-0.746667-23.594667 5.952l-132.138667 151.04-21.546667-21.504 139.306667-154.218667c23.829333-26.346667 57.856-41.472 93.376-41.472l94.933333 0c35.498667 0 69.546667 15.125333 93.376 41.472l139.264 154.218667L666.24 529.792z" p-id="8930"></path><path d="M926.016 0l-98.197333 0c-11.797333 0-21.376 9.557333-21.376 21.376 0 11.776 9.557333 21.354667 21.376 21.354667l76.8 0L904.618667 245.333333l-52.202667 0c-11.84 0-21.376 9.578667-21.376 21.376 0 11.776 9.536 21.354667 21.376 21.354667l52.202667 0 0 202.581333-52.202667 0c-11.84 0-21.376 9.557333-21.376 21.354667s9.536 21.376 21.376 21.376l52.202667 0 0 202.56-52.202667 0c-11.84 0-21.376 9.514667-21.376 21.354667s9.536 21.376 21.376 21.376l52.202667 0 0 202.602667-76.8 0c-11.818667 0-21.376 9.557333-21.376 21.354667 0 11.818667 9.557333 21.376 21.376 21.376l98.176 0c11.797333 0 21.333333-9.557333 21.354667-21.376L947.349333 21.354667C947.349333 9.557333 937.813333 0 926.016 0z" p-id="8931"></path><path d="M407.658667 238.997333c65.877333 0 119.509333-53.632 119.509333-119.509333S473.536 0 407.658667 0c-65.898667 0-119.509333 53.610667-119.509333 119.488C288.149333 185.386667 341.76 238.997333 407.658667 238.997333zM407.658667 42.730667c42.325333 0 76.778667 34.410667 76.778667 76.757333 0 42.325333-34.453333 76.778667-76.778667 76.778667S330.88 161.813333 330.88 119.488C330.88 77.141333 365.333333 42.730667 407.658667 42.730667z" p-id="8932"></path></svg>